# xmcd
# 
# Track frame offsets:
#     182
#     77100
#     117937
#     154462
#     199575
#     231600
# 
# Disc length: 3502
# 
# Revision: 2
# Processed by: cddbd v1.5.2PL0 Copyright (c) Steve Scherf et al.
# Submitted via: BonkEnc v1.0.15
# 
DISCID=4e0dac06
DTITLE=Miles Davis - Black Devil
DYEAR=1991
DGENRE=Contemporary Jazz
TTITLE0=Dig
TTITLE1=Watermelon Man
TTITLE2=Penetration
TTITLE3=Wrinkle
TTITLE4=Footprints
TTITLE5=Jean Pierre
EXTD=
EXTT0=
EXTT1=
EXTT2=
EXTT3=
EXTT4=
EXTT5=
PLAYORDER=
